<?xml version="1.0" standalone="no"?>
<!DOCTYPE svg PUBLIC "-//W3C//DTD SVG 20010904//EN"
 "http://www.w3.org/TR/2001/REC-SVG-20010904/DTD/svg10.dtd">
<svg version="1.0" xmlns="http://www.w3.org/2000/svg"
 width="260.000000pt" height="260.000000pt" viewBox="0 0 260.000000 260.000000"
 preserveAspectRatio="xMidYMid meet">
<metadata>
Created by potrace 1.11, written by Peter Selinger 2001-2013
</metadata>
<g transform="translate(0.000000,260.000000) scale(0.100000,-0.100000)"
fill="#000000" stroke="none">
<path d="M1275 2090 c-31 -6 -30 -3 -34 -97 -1 -18 -12 -25 -62 -39 -120 -34
-219 -125 -245 -225 -41 -158 57 -299 259 -374 28 -11 47 -24 48 -34 0 -9 1
-100 2 -204 l2 -187 -33 5 c-74 12 -213 99 -198 124 3 5 -1 14 -10 22 -18 15
-29 5 -88 -79 l-38 -52 42 -40 c23 -21 61 -50 85 -63 55 -31 161 -67 197 -67
33 0 45 -23 42 -73 -1 -18 2 -38 8 -44 14 -17 122 -17 135 -1 6 7 9 34 8 60
-1 30 3 52 11 59 8 6 14 9 14 6 0 -3 15 -1 33 4 162 52 267 175 273 322 6 156
-81 257 -286 331 l-45 16 0 175 c-1 163 0 175 17 175 45 0 126 -60 152 -112 6
-13 17 -23 23 -23 14 0 103 110 103 129 0 14 -83 88 -130 115 -14 8 -56 24
-95 36 -65 20 -70 24 -71 51 0 16 4 37 9 48 5 11 5 22 -1 28 -12 12 -83 16
-127 8z m-34 -292 c5 -122 1 -272 -8 -275 -19 -7 -107 62 -126 100 -35 67 -2
142 77 178 52 24 56 24 57 -3z m274 -572 c90 -90 42 -232 -95 -284 l-25 -10 1
172 c1 94 2 174 3 179 1 8 98 -39 116 -57z"/>
<path d="M355 1593 c-181 -152 -334 -283 -339 -291 -6 -10 -4 -19 5 -26 36
-27 613 -509 647 -539 l22 -21 60 59 c33 33 60 66 60 75 0 8 -53 58 -118 112
-64 53 -132 109 -151 125 -19 15 -80 66 -135 111 -56 46 -105 87 -109 92 -5 4
69 72 165 150 95 78 182 149 193 159 11 9 50 41 88 71 37 29 67 61 67 70 0 14
-108 131 -120 129 -3 0 -153 -124 -335 -276z"/>
<path d="M1850 1809 c-33 -35 -60 -66 -60 -69 0 -9 91 -86 417 -353 l112 -92
-46 -40 c-26 -22 -75 -62 -109 -90 -34 -27 -132 -108 -218 -178 -176 -145
-170 -130 -87 -216 46 -49 65 -60 73 -43 2 4 150 130 331 280 180 150 327 279
327 287 0 12 -618 538 -667 568 -8 5 -34 -14 -73 -54z"/>
</g>
</svg>
